HIERARCHY
ROOT Hips
{
	OFFSET 0.000000 0.000000 0.000000
	CHANNELS 6 Xposition Yposition Zposition Xrotation Yrotation Zrotation
	JOINT LeftUpLeg_virtual
	{
		OFFSET 0.000000 0.000000 0.000000
		CHANNELS 3 Xrotation Yrotation Zrotation
		JOINT LeftUpLeg
		{
			OFFSET 10.205400 -3.823500 0.155100
			CHANNELS 3 Xrotation Yrotation Zrotation
			JOINT LeftLeg
			{
				OFFSET 0.708757 -12.982077 0.567790
				CHANNELS 3 Xrotation Yrotation Zrotation
				JOINT LeftFoot
				{
					OFFSET -0.708756 -10.717838 -2.184338
					CHANNELS 3 Xrotation Yrotation Zrotation
					JOINT LeftToeBase
					{
						OFFSET 0.108149 -7.191104 7.560241
						CHANNELS 3 Xrotation Yrotation Zrotation
						JOINT LeftToe_End
						{
							OFFSET 0.070230 0.081724 4.490308
							CHANNELS 3 Xrotation Yrotation Zrotation
							End Site
							{
								OFFSET 0 0 0
							}
						}
					}
				}
			}
		}
	}
	JOINT RightUpLeg_virtual
	{
		OFFSET 0.000000 0.000000 0.000000
		CHANNELS 3 Xrotation Yrotation Zrotation
		JOINT RightUpLeg
		{
			OFFSET -10.205400 -3.823500 0.005500
			CHANNELS 3 Xrotation Yrotation Zrotation
			JOINT RightLeg
			{
				OFFSET -0.708756 -12.982134 0.610632
				CHANNELS 3 Xrotation Yrotation Zrotation
				JOINT RightFoot
				{
					OFFSET 0.708754 -10.717769 -1.945823
					CHANNELS 3 Xrotation Yrotation Zrotation
					JOINT RightToeBase
					{
						OFFSET -0.108140 -7.191069 7.372968
						CHANNELS 3 Xrotation Yrotation Zrotation
						JOINT RightToe_End
						{
							OFFSET -0.070227 0.081735 4.479403
							CHANNELS 3 Xrotation Yrotation Zrotation
							End Site
							{
								OFFSET 0 0 0
							}
						}
					}
				}
			}
		}
	}
	JOINT Spine_virtual
	{
		OFFSET 0.000000 0.000000 0.000000
		CHANNELS 3 Xrotation Yrotation Zrotation
		JOINT Spine
		{
			OFFSET 0.000000 6.876099 0.125700
			CHANNELS 3 Xrotation Yrotation Zrotation
			JOINT Spine1
			{
				OFFSET 0.000000 5.730043 0.104720
				CHANNELS 3 Xrotation Yrotation Zrotation
				JOINT Spine1_split
				{
					OFFSET 0.000000 5.730043 0.104720
					CHANNELS 3 Xrotation Yrotation Zrotation
					JOINT Spine2
					{
						OFFSET 0.000000 5.730043 0.104720
						CHANNELS 3 Xrotation Yrotation Zrotation
						JOINT Neck_virtual
						{
							OFFSET 0.000000 0.000000 0.000000
							CHANNELS 3 Xrotation Yrotation Zrotation
							JOINT Neck
							{
								OFFSET 0.000000 10.314075 0.188496
								CHANNELS 3 Xrotation Yrotation Zrotation
								JOINT Head
								{
									OFFSET 0.000000 7.643700 -2.377400
									CHANNELS 3 Xrotation Yrotation Zrotation
									JOINT HeadTop_End
									{
										OFFSET 0.000000 43.788605 -13.619600
										CHANNELS 3 Xrotation Yrotation Zrotation
										End Site
										{
											OFFSET 0 0 0
										}
									}
								}
							}
						}
						JOINT LeftShoulder_virtual
						{
							OFFSET 0.000000 0.000000 0.000000
							CHANNELS 3 Xrotation Yrotation Zrotation
							JOINT LeftShoulder
							{
								OFFSET 2.196100 4.412489 0.087492
								CHANNELS 3 Xrotation Yrotation Zrotation
								JOINT LeftShoulder_split
								{
									OFFSET 2.196100 4.412489 0.087492
									CHANNELS 3 Xrotation Yrotation Zrotation
									JOINT LeftArm
									{
										OFFSET 8.771219 -2.981674 -0.026999
										CHANNELS 3 Xrotation Yrotation Zrotation
										JOINT LeftForeArm
										{
											OFFSET 8.512804 0.000000 -0.000000
											CHANNELS 3 Xrotation Yrotation Zrotation
											JOINT LeftHand
											{
												OFFSET 18.484802 0.000000 -0.000000
												CHANNELS 3 Xrotation Yrotation Zrotation
												End Site
												{
													OFFSET 0 0 0
												}
											}
										}
									}
								}
							}
						}
						JOINT RightShoulder_virtual
						{
							OFFSET 0.000000 0.000000 0.000000
							CHANNELS 3 Xrotation Yrotation Zrotation
							JOINT RightShoulder
							{
								OFFSET -2.196100 4.412496 0.070690
								CHANNELS 3 Xrotation Yrotation Zrotation
								JOINT RightShoulder_split
								{
									OFFSET -2.196100 4.412496 0.070690
									CHANNELS 3 Xrotation Yrotation Zrotation
									JOINT RightArm
									{
										OFFSET -8.771282 -2.981682 -0.094208
										CHANNELS 3 Xrotation Yrotation Zrotation
										JOINT RightForeArm
										{
											OFFSET -8.494598 0.000000 0.000000
											CHANNELS 3 Xrotation Yrotation Zrotation
											JOINT RightHand
											{
												OFFSET -18.483803 0.000000 0.000001
												CHANNELS 3 Xrotation Yrotation Zrotation
												End Site
												{
													OFFSET 0 0 0
												}
											}
										}
									}
								}
							}
						}
					}
				}
			}
		}
	}
}
MOTION
Frames: 4
Frame Time: 0.03333333
1.577784 34.567490 -1.555703 0.000000 0.000000 0.000000 -4.719910 9.153225 0.412841 -17.174162 14.324911 12.072729 25.937452 1.471730 7.404313 -5.365526 -8.714480 -19.180259 -2.131642 -2.908579 1.595793 0.000000 0.000000 0.000000 -4.566367 9.627397 0.374525 15.506780 -11.515805 5.873902 15.766438 0.071422 -2.838291 -30.117647 -22.714779 10.757199 0.555749 1.241556 -13.892124 0.000000 0.000000 0.000000 -4.866382 10.627324 -0.076561 2.872415 -3.131312 3.817887 -2.126708 0.157470 3.514639 0.071874 -0.275110 -0.044293 0.000000 0.000000 0.000000 0.309024 2.370253 3.428112 15.027482 -0.191646 0.416399 -0.974232 -20.771782 -14.341232 0.000000 0.000000 0.000000 -1.800084 1.011633 2.678696 -0.995653 -19.543762 -12.504875 1.395295 0.632983 -5.166505 10.243005 -3.700464 -67.665721 3.740007 -6.913234 4.938398 0.000000 0.000000 0.000000 -0.947093 1.144110 3.616244 4.985666 1.993118 15.483620 -6.206799 1.103258 -0.205058 19.973635 10.585734 57.088852 -0.737945 -7.361364 -0.908413 0.000000 0.000000 0.000000 
1.568002 34.615082 -1.566803 0.000000 0.000000 0.000000 -4.326790 8.443236 0.276182 -16.993278 14.482535 12.192786 25.525544 1.430289 7.071233 -5.652846 -7.952534 -19.089291 -1.911153 -2.925887 1.645431 0.000000 0.000000 0.000000 -4.178554 8.930767 0.229641 14.833154 -11.612520 5.590414 15.586061 0.132178 -2.656094 -29.496291 -22.003852 11.008883 0.376677 1.220755 -13.671885 0.000000 0.000000 0.000000 -4.375556 10.000428 -0.261274 2.934063 -3.430206 3.918328 -2.338126 0.049103 3.514647 0.074253 -0.285271 -0.037328 0.000000 0.000000 0.000000 0.159960 2.268282 3.435021 14.740600 0.000938 0.318988 -1.186480 -19.252570 -14.569210 0.000000 0.000000 0.000000 -1.998028 0.918604 2.654701 -0.979547 -19.698508 -12.906772 1.659778 0.707883 -4.889096 10.901359 -2.162713 -67.978913 3.792777 -7.470879 4.712702 0.000000 0.000000 0.000000 -1.027710 1.042736 3.626964 5.088879 1.338785 15.573566 -6.789784 1.127463 -0.236511 22.149632 10.658858 55.822556 -1.164213 -7.579825 -0.366144 0.000000 0.000000 0.000000 
1.556381 34.659245 -1.592823 0.000000 0.000000 0.000000 -3.942212 7.566117 0.088301 -16.789676 14.604765 12.368907 25.185790 1.399361 6.761520 -5.973515 -7.015296 -19.124070 -1.835721 -2.945676 1.654535 0.000000 0.000000 0.000000 -3.799592 8.070732 0.034578 14.102575 -11.746543 5.302573 15.424565 0.184597 -2.438391 -28.921220 -21.094085 11.128550 0.310277 1.192796 -13.398352 0.000000 0.000000 0.000000 -3.890870 9.199669 -0.499265 3.031255 -3.643369 4.032267 -2.468158 -0.025290 3.530101 0.084331 -0.268130 -0.030577 0.000000 0.000000 0.000000 0.042064 2.188805 3.462577 14.347892 0.199724 0.212865 -1.435267 -17.812358 -14.754400 0.000000 0.000000 0.000000 -2.130466 0.852216 2.642116 -0.931736 -19.808254 -13.188207 1.765385 0.790987 -4.659987 11.331154 -1.033684 -68.466745 3.899956 -7.845475 4.605941 0.000000 0.000000 0.000000 -1.047783 0.984260 3.656758 5.140375 1.104435 15.712644 -7.443854 1.047680 -0.273877 22.882944 10.085679 54.734800 -1.571293 -8.367618 0.259182 0.000000 0.000000 0.000000 
1.542519 34.698223 -1.632317 0.000000 0.000000 0.000000 -3.569767 6.602517 -0.133295 -16.603420 14.649436 12.584816 24.940041 1.375517 6.503679 -6.304119 -5.954339 -19.259795 -1.918201 -2.964840 1.602288 0.000000 0.000000 0.000000 -3.437219 7.105633 -0.191705 13.331378 -11.915770 5.017684 15.278956 0.209938 -2.191742 -28.338972 -20.023891 11.132469 0.332798 1.153804 -13.064823 0.000000 0.000000 0.000000 -3.437165 8.272505 -0.767688 3.157149 -3.761332 4.145693 -2.520398 -0.069722 3.537791 0.097926 -0.229461 -0.029147 0.000000 0.000000 0.000000 -0.046752 2.132447 3.485113 13.860033 0.413637 0.137160 -1.658231 -16.436017 -14.888610 0.000000 0.000000 0.000000 -2.192851 0.808688 2.613755 -0.845362 -19.862665 -13.332050 1.730448 0.839925 -4.471323 11.612915 -0.514656 -69.012873 4.012330 -7.931944 4.579232 0.000000 0.000000 0.000000 -1.025484 0.964555 3.681528 5.125994 1.263792 15.923334 -7.926234 0.933809 -0.320854 22.258289 9.074631 53.947419 -1.872892 -9.395626 0.874754 0.000000 0.000000 0.000000 
